<?xml version="1.0" encoding="UTF-8"?>
<svg id="Capa_2" data-name="Capa 2" xmlns="http://www.w3.org/2000/svg" viewBox="0 0 80.71 78.69">
  <defs>
    <style>
      .cls-1 {
        fill: #5b5b5b;
        stroke-width: 0px;
      }
    </style>
  </defs>
  <g id="Capa_1-2" data-name="Capa 1">
    <g>
      <path class="cls-1" d="M57.55,34.12c-1.86-.11-3.61.89-4.47,2.54-.37.76-.62,1.57-.73,2.4h7.09c.87,0,1.51,0,1.92-.03.28-.03.55-.12.79-.26v-.32c-.01-.42-.08-.84-.22-1.25-.6-1.9-2.4-3.16-4.39-3.09Z"/>
      <polygon class="cls-1" points="26.09 26.38 21.87 40.4 30.42 40.4 26.14 26.38 26.09 26.38"/>
      <path class="cls-1" d="M66.42,0H14.29C6.4,0,0,6.4,0,14.29v50.11c0,7.89,6.4,14.29,14.29,14.29h52.13c7.89,0,14.29-6.4,14.29-14.29V14.29c0-7.89-6.4-14.29-14.29-14.29ZM42.77,55.49h-7.04c-.25.03-.48-.13-.54-.38l-2.76-8.03h-12.51l-2.54,7.92c-.07.3-.34.5-.65.49h-6.33c-.36,0-.49-.2-.38-.6l10.83-31.06c.11-.32.22-.64.32-1.06.14-.72.21-1.46.22-2.19-.03-.18.1-.35.28-.38.03,0,.06,0,.09,0h8.61c.25,0,.4.09.43.27l12.29,34.47c.11.36,0,.54-.32.54ZM69.16,42.08c-.05.65-.1,1.12-.14,1.41-.03.25-.24.43-.49.43-.22,0-.59.03-1.11.08-.52.05-1.17.09-1.95.11-.78.02-1.6-.11-2.46-.11h-10.67c.13,1.06.48,2.07,1.03,2.98.61.9,1.46,1.61,2.46,2.03,1.36.59,2.83.88,4.3.84,1.17-.02,2.34-.15,3.49-.38,1.03-.14,2.04-.4,3-.78.18-.14.27-.05.27.27v5.14c0,.14-.02.28-.08.41-.06.1-.15.18-.24.24-1.07.47-2.2.81-3.35,1-1.57.3-3.17.43-4.76.41-2.56,0-4.71-.4-6.44-1.19-1.64-.72-3.08-1.82-4.22-3.19-1.06-1.3-1.86-2.8-2.33-4.41-.47-1.59-.7-3.24-.7-4.9,0-1.81.28-3.61.84-5.33.54-1.68,1.39-3.24,2.52-4.6,2.47-3,5.88-4.25,9.69-4.25,3.28,0,6.65,1.09,8.77,3.71.89,1.14,1.57,2.44,2,3.82.43,1.33.65,2.72.65,4.11,0,.79-.03,1.52-.08,2.17Z"/>
    </g>
  </g>
</svg>