<?xml version="1.0" encoding="UTF-8"?>
<svg id="Capa_2" data-name="Capa 2" xmlns="http://www.w3.org/2000/svg" viewBox="0 0 80.71 77.83">
  <defs>
    <style>
      .cls-1 {
        fill: #5b5b5b;
        stroke-width: 0px;
      }
    </style>
  </defs>
  <g id="Capa_1-2" data-name="Capa 1">
    <g>
      <polygon class="cls-1" points="21.45 40.42 30.36 40.42 25.9 25.98 21.45 40.42"/>
      <path class="cls-1" d="M66.42,0H14.29C6.4,0,0,6.4,0,14.29v49.25c0,7.89,6.4,14.29,14.29,14.29h52.13c7.89,0,14.29-6.4,14.29-14.29V14.29c0-7.89-6.4-14.29-14.29-14.29ZM42.04,54.74h-6.93c-.25.03-.47-.13-.53-.37l-2.72-8.27h-12.32l-2.51,8.17c-.07.29-.34.49-.64.48h-6.24c-.36,0-.48-.2-.37-.59l10.67-30.32c.11-.32.21-.68.32-1.09.14-.71.21-1.43.21-2.16-.03-.18.1-.35.28-.37.03,0,.06,0,.09,0h8.48c.25,0,.39.09.43.27l12.1,33.73c.11.36,0,.53-.32.53ZM67.47,54.7l-5.49.07c-.27.03-.53-.12-.64-.37-.08-.27-.14-.55-.19-.83-.05-.27-.08-.55-.08-.83-.99,1-2.2,1.77-3.53,2.24-1.2.33-2.44.5-3.68.51-1.28,0-2.56-.2-3.78-.6-1.07-.3-2.05-.85-2.85-1.62-.85-1.04-1.49-2.24-1.87-3.53-.48-1.53-.7-3.12-.67-4.72v-15.73c-.03-.21.11-.4.32-.43.04,0,.07,0,.11,0h6.27c.21-.03.4.11.43.32,0,.04,0,.07,0,.11v14.88c-.07,1.22.27,2.43.96,3.44.87,1,2.14,1.56,3.47,1.54.86-.08,1.69-.32,2.47-.69.67-.27,1.3-.64,1.87-1.09v-18.13c0-.25.16-.37.48-.37l6.26.02c.18-.03.35.1.37.28,0,.03,0,.06,0,.09l-.13,19.54c0,.89,0,1.68.03,2.37.02.69.05,1.3.11,1.81.05.52.1.95.13,1.31.03.28-.09.43-.37.43Z"/>
    </g>
  </g>
</svg>