<?xml version="1.0" encoding="UTF-8"?>
<svg id="Capa_2" data-name="Capa 2" xmlns="http://www.w3.org/2000/svg" viewBox="0 0 55.77 78.71">
  <defs>
    <style>
      .cls-1 {
        fill: #5b5b5b;
        stroke-width: 0px;
      }
    </style>
  </defs>
  <g id="Capa_1-2" data-name="Capa 1">
    <g>
      <path id="path2999" class="cls-1" d="M13.12,0h8.46v3.54h-4.92v3.54h4.92v3.54h-8.46V0Z"/>
      <path id="path3001" class="cls-1" d="M23.27,0h8.46v3.07h-4.92v.61h4.92v7.07h-8.46v-3.23h4.92v-.61h-4.92V0Z"/>
      <path id="path3003" class="cls-1" d="M33.42,0h8.46v3.07h-4.92v.61h4.92v7.07h-8.46v-3.23h4.92v-.61h-4.92V0Z"/>
      <path class="cls-1" d="M0,15.47l5.07,56.92,22.77,6.32,22.84-6.33,5.08-56.91H0ZM44.09,41.23l-.17,1.87-1.64,18.38-.11,1.18-14.29,3.96h0s-.03.01-.03.01l-14.3-3.97-.98-10.96h7.01l.5,5.57,7.78,2.1h0s7.79-2.1,7.79-2.1l.81-9.05H12.26l-.63-6.98h25.43l.64-7.15H11.01l-.63-6.98h34.97l-1.26,14.13Z"/>
    </g>
  </g>
</svg>