<?xml version="1.0" encoding="UTF-8"?>
<svg id="Capa_2" data-name="Capa 2" xmlns="http://www.w3.org/2000/svg" viewBox="0 0 55.98 79">
  <defs>
    <style>
      .cls-1 {
        fill: #5b5b5b;
        stroke-width: 0px;
      }
    </style>
  </defs>
  <g id="Capa_1-2" data-name="Capa 1">
    <g>
      <path class="cls-1" d="M5.22,0h3.55v3.52h3.27V0h3.55v10.65h-3.55v-3.55h-3.24v3.55h-3.58V0ZM20.27,3.55h-3.13V0h9.83v3.55h-3.15v7.1h-3.55V3.55ZM28.53,0h3.72l2.28,3.75,2.28-3.75h3.72v10.65h-3.55v-5.28l-2.48,3.83-2.48-3.83v5.28h-3.49V0ZM42.29,0h3.55v7.13h5.03v3.52h-8.58V0Z"/>
      <path class="cls-1" d="M0,15.52l5.09,57.15,22.85,6.33,22.94-6.36,5.09-57.12H0ZM44.87,34.21h-26.79l.65,7.17h25.51l-1.93,21.51-14.28,3.96-.04.05-14.38-4.01-.99-11h7.04l.49,5.6,7.82,2.09,7.81-2.09.82-9.1h-8.64v-.02h-15.65l-1.91-21.17h35.12l-.65,7.01Z"/>
    </g>
  </g>
</svg>