<?xml version="1.0" encoding="UTF-8"?>
<svg id="Capa_2" fill="#5ECDD3" data-name="Capa 2" xmlns="http://www.w3.org/2000/svg" viewBox="0 0 80.71 78.69">
  <defs>
  </defs>
  <g id="Capa_1-2" data-name="Capa 1">
    <g>
      <polygon class="cls-1" points="28.55 40.39 37.09 40.39 32.79 26.37 28.55 40.39"/>
      <path class="cls-1" d="M66.42,0H14.29C6.39,0,0,6.39,0,14.29v50.11c0,7.9,6.39,14.29,14.29,14.29h52.13c7.9,0,14.29-6.39,14.29-14.29V14.29c0-7.9-6.39-14.29-14.29-14.29ZM49.44,55.59h-7.03c-.24.03-.47-.13-.54-.37l-2.76-8h-12.51l-2.56,7.9c-.07.3-.34.5-.64.47h-6.32c-.37,0-.47-.2-.37-.61l10.83-31.18c.1-.34.2-.71.34-1.11.13-.71.2-1.45.2-2.19-.03-.17.1-.34.27-.37h8.71c.27,0,.4.1.44.27l12.28,34.64c.1.37,0,.54-.34.54ZM60.87,55.09c0,.37-.13.54-.44.54h-6.59c-.34,0-.5-.2-.5-.54v-25.9c0-.34.13-.47.44-.47h6.66c.3,0,.44.17.44.47v25.9ZM60.16,24.72c-.77.81-1.92,1.24-3.06,1.18-1.11.03-2.19-.4-2.99-1.18-.77-.84-1.18-1.95-1.14-3.09-.03-1.14.4-2.22,1.21-2.99.81-.77,1.88-1.18,2.99-1.18,1.31,0,2.32.4,3.06,1.18.74.81,1.14,1.88,1.11,2.99.03,1.14-.37,2.25-1.18,3.09Z"/>
    </g>
  </g>
</svg>