<?xml version="1.0" encoding="UTF-8"?>
<svg id="Capa_2" data-name="Capa 2" xmlns="http://www.w3.org/2000/svg" viewBox="0 0 80.71 78.69">
  <defs>
    <style>
      .cls-1 {
        fill: #5b5b5b;
        stroke-width: 0px;
      }
    </style>
  </defs>
  <g id="Capa_1-2" data-name="Capa 1">
    <g>
      <path class="cls-1" d="M49.97,34.4c-1.31,0-2.62.27-3.8.87-1.14.57-2.12,1.41-2.86,2.49s-1.11,2.52-1.11,4.27c-.03,1.18.17,2.35.57,3.46.34.91.84,1.72,1.51,2.39.64.61,1.41,1.08,2.29,1.35.91.3,1.85.44,2.79.44.5,0,.98-.03,1.41-.07.44.03.84-.03,1.21-.17v-14.8c-.3-.07-.61-.13-.91-.17-.37-.03-.74-.07-1.11-.07Z"/>
      <path class="cls-1" d="M66.42,0H14.29C6.39,0,0,6.39,0,14.29v50.11c0,7.9,6.39,14.29,14.29,14.29h52.13c7.9,0,14.29-6.39,14.29-14.29V14.29c0-7.9-6.39-14.29-14.29-14.29ZM29.33,55.09c0,.37-.17.54-.47.54h-6.59c-.3,0-.44-.17-.44-.54V20.58c0-.3.17-.44.47-.44h6.56c.2-.03.4.1.44.34.03.03.03.07.03.1v34.5ZM59.36,54.08c-1.75.74-3.6,1.28-5.48,1.61-1.68.3-3.43.47-5.18.47-2.49.03-4.98-.47-7.23-1.51-2.12-.98-3.87-2.59-5.08-4.57-1.24-2.05-1.85-4.61-1.85-7.67-.03-2.49.61-4.94,1.85-7.1,1.28-2.19,3.13-4,5.35-5.21,2.35-1.31,5.18-1.95,8.51-1.95.17,0,.4,0,.71.03s.64.03,1.04.07v-10.63c0-.24.1-.37.34-.37h6.83c.17-.03.3.1.34.24v32.08c0,.61.03,1.28.07,2.02.07.71.1,1.38.13,1.95,0,.24-.1.44-.34.54Z"/>
    </g>
  </g>
</svg>