<?xml version="1.0" encoding="UTF-8"?>
<svg id="Capa_2" data-name="Capa 2" xmlns="http://www.w3.org/2000/svg" viewBox="0 0 79 79">
  <defs>
    <style>
      .cls-1 {
        fill: #5b5b5b;
        stroke-width: 0px;
      }
    </style>
  </defs>
  <g id="Capa_1-2" data-name="Capa 1">
    <path class="cls-1" d="M0,0v79h79V0H0ZM43.02,61.62c0,7.69-4.51,11.19-11.09,11.19-5.94,0-9.39-3.08-11.14-6.78l6.04-3.66c1.17,2.07,2.23,3.82,4.78,3.82s3.98-.95,3.98-4.66v-25.24h7.42v25.34ZM60.56,72.82c-6.89,0-11.35-3.29-13.53-7.59l6.03-3.5c1.59,2.6,3.66,4.51,7.32,4.51,3.08,0,5.04-1.54,5.04-3.66,0-2.55-2.02-3.45-5.4-4.93l-1.86-.8c-5.36-2.28-8.92-5.14-8.92-11.19,0-5.57,4.24-9.81,10.87-9.81,4.72,0,8.11,1.64,10.56,5.94l-5.78,3.71c-1.27-2.28-2.65-3.18-4.78-3.18s-3.55,1.38-3.55,3.18c0,2.23,1.38,3.13,4.56,4.51l1.86.79c6.31,2.7,9.87,5.46,9.87,11.66,0,6.68-5.25,10.35-12.3,10.35Z"/>
  </g>
</svg>