<?xml version="1.0" encoding="UTF-8"?>
<svg id="Capa_2" data-name="Capa 2" xmlns="http://www.w3.org/2000/svg" viewBox="0 0 80.71 78.69">
  <defs>
    <style>
      .cls-1 {
        fill: #5b5b5b;
        stroke-width: 0px;
      }
    </style>
  </defs>
  <g id="Capa_1-2" data-name="Capa 1">
    <g>
      <path class="cls-1" d="M29.16,26.64c-.87,0-1.65,0-2.29.03-.67-.03-1.14,0-1.38.03v11.3c.47.03.91.07,1.31.07h1.78c2.32,0,5-.55,6.62-2.39,1.4-1.59,1.4-4.73.27-6.46-1.34-2.05-4.02-2.65-6.32-2.59Z"/>
      <path class="cls-1" d="M66.42,0H14.29C6.39,0,0,6.39,0,14.29v50.11c0,7.9,6.39,14.29,14.29,14.29h52.13c7.9,0,14.29-6.39,14.29-14.29V14.29c0-7.9-6.39-14.29-14.29-14.29ZM41.57,39.18c-1.35,1.88-3.23,3.3-5.41,4.1-2.29.84-4.81,1.14-7.57,1.14-.81,0-1.35,0-1.68-.03-.34-.03-.81-.03-1.45-.03v10.8c.03.24-.13.44-.37.47h-6.52c-.27,0-.4-.13-.4-.44V20.58c0-.24.1-.37.34-.37.57,0,1.11,0,1.88-.03.81-.03,1.65-.03,2.56-.07.91-.03,1.88-.03,2.93-.07,1.04-.03,2.05-.03,3.06-.03,2.76,0,5.04.34,6.93,1.04,1.68.57,3.23,1.51,4.51,2.76,1.08,1.08,1.92,2.39,2.45,3.83.5,1.41.77,2.86.77,4.37,0,2.89-.67,5.28-2.02,7.16ZM65.41,52.26c-.94,1.35-2.25,2.39-3.77,2.99-1.65.71-3.67,1.08-6.09,1.08-1.55,0-3.06-.13-4.57-.44-1.18-.2-2.35-.57-3.43-1.08-.24-.13-.4-.37-.37-.64v-5.85c0-.1.03-.24.13-.3.1-.07.2-.03.3.03,1.31.77,2.69,1.31,4.17,1.65,1.28.34,2.62.5,3.97.5s2.19-.17,2.79-.47c.54-.24.91-.81.91-1.41,0-.47-.27-.91-.81-1.35s-1.65-.94-3.3-1.58c-1.72-.61-3.3-1.41-4.78-2.42-1.04-.74-1.92-1.72-2.56-2.86-.54-1.08-.81-2.25-.77-3.43,0-1.45.4-2.82,1.14-4.07.84-1.35,2.09-2.42,3.53-3.09,1.58-.81,3.56-1.18,5.95-1.18,1.38,0,2.79.1,4.17.3,1.01.13,1.98.4,2.89.77.13.03.27.17.34.3.03.13.07.27.07.4v5.48c0,.13-.07.27-.17.34-.3.07-.47.07-.61,0-1.01-.54-2.09-.91-3.23-1.14-1.24-.27-2.49-.44-3.77-.44-.67-.03-1.38.07-2.02.24-.44.1-.81.34-1.04.67-.17.27-.27.61-.27.91s.13.61.34.87c.3.37.71.67,1.14.91.77.4,1.58.77,2.39,1.11,1.82.61,3.56,1.45,5.18,2.45,1.11.71,2.02,1.65,2.66,2.79.54,1.08.81,2.25.77,3.46.03,1.58-.44,3.16-1.31,4.47Z"/>
    </g>
  </g>
</svg>