<?xml version="1.0" encoding="UTF-8"?>
<svg id="Capa_2" data-name="Capa 2" xmlns="http://www.w3.org/2000/svg" viewBox="0 0 80.71 78.69">
  <defs>
    <style>
      .cls-1 {
        fill: #5b5b5b;
        stroke-width: 0px;
      }
    </style>
  </defs>
  <g id="Capa_1-2" data-name="Capa 1">
    <g>
      <path class="cls-1" d="M34.13,27.31c-1.24-.5-2.59-.71-3.97-.67-.87,0-1.65,0-2.29.03-.67-.03-1.14,0-1.38.03v11.3c.47.03.91.07,1.31.07h1.78c1.31,0,2.62-.2,3.87-.61,2.41-.78,3.8-2.74,3.8-5.25,0-2.1-1.11-4.14-3.13-4.91Z"/>
      <path class="cls-1" d="M66.42,0H14.29C6.39,0,0,6.39,0,14.29v50.11c0,7.9,6.39,14.29,14.29,14.29h52.13c7.9,0,14.29-6.39,14.29-14.29V14.29c0-7.9-6.39-14.29-14.29-14.29ZM37.16,43.28c-2.29.84-4.81,1.14-7.57,1.14-.81,0-1.35,0-1.68-.03s-.81-.03-1.45-.03v10.8c.03.24-.13.44-.37.47h-6.52c-.27,0-.4-.13-.4-.44V20.58c0-.24.1-.37.34-.37.57,0,1.11,0,1.88-.03l8.54-.17c2.76,0,5.04.34,6.93,1.04,3.16,1.19,5.76,3.37,6.96,6.59.5,1.41.77,2.86.77,4.37,0,4.96-2.62,9.49-7.43,11.27ZM65.51,28.59v6.56c0,.27-.17.37-.54.37-1.21-.03-2.46.07-3.63.34-.98.2-1.92.5-2.83.91-.64.3-1.24.71-1.72,1.24v17.15c0,.34-.13.47-.44.47h-6.63c-.27.03-.5-.13-.54-.4v-18.77c0-.81,0-1.65-.03-2.52-.03-.87-.03-1.75-.07-2.62,0-.77-.07-1.51-.13-2.29-.03-.17.07-.34.24-.37,0-.03.07-.03.1,0h5.89c.34,0,.61.24.71.54.1.27.17.54.2.84.07.34.13.71.17,1.04.03.37.07.77.07,1.21,1.01-1.18,2.22-2.15,3.6-2.89,1.55-.87,3.33-1.31,5.11-1.31.24-.03.44.13.47.37v.13Z"/>
    </g>
  </g>
</svg>